<?xml version="1.0" encoding="UTF-8" standalone="no"?>
<svg
   viewBox="0 0 384 512"
   fill="#ffa500"
   version="1.1"
   id="svg4"
   sodipodi:docname="pause.svg"
   width="384"
   height="512"
   inkscape:version="1.2.2 (b0a8486541, 2022-12-01)"
   xmlns:inkscape="http://www.inkscape.org/namespaces/inkscape"
   xmlns:sodipodi="http://sodipodi.sourceforge.net/DTD/sodipodi-0.dtd"
   xmlns="http://www.w3.org/2000/svg"
   xmlns:svg="http://www.w3.org/2000/svg">
  <defs
     id="defs8" />
  <sodipodi:namedview
     id="namedview6"
     pagecolor="#ffffff"
     bordercolor="#666666"
     borderopacity="1.0"
     inkscape:showpageshadow="2"
     inkscape:pageopacity="0.0"
     inkscape:pagecheckerboard="0"
     inkscape:deskcolor="#d1d1d1"
     showgrid="false"
     inkscape:zoom="1.9570312"
     inkscape:cx="144.60679"
     inkscape:cy="256.25549"
     inkscape:window-width="2560"
     inkscape:window-height="1382"
     inkscape:window-x="1920"
     inkscape:window-y="0"
     inkscape:window-maximized="1"
     inkscape:current-layer="svg4" />
  <!--! Font Awesome Pro 6.4.0 by @fontawesome - https://fontawesome.com License - https://fontawesome.com/license (Commercial License) Copyright 2023 Fonticons, Inc. -->
  <path
     d="M 80,64 C 53.5,64 32,85.5 32,112 v 288 c 0,26.5 21.5,48 48,48 h 32 c 26.5,0 48,-21.5 48,-48 V 112 C 160,85.5 138.5,64 112,64 Z m 192,0 c -26.5,0 -48,21.5 -48,48 v 288 c 0,26.5 21.5,48 48,48 h 32 c 26.5,0 48,-21.5 48,-48 V 112 C 352,85.5 330.5,64 304,64 Z"
     id="path2" />
</svg>
